<?xml version="1.0" encoding="UTF-8" standalone="no"?>
<svg
   width="500"
   zoomAndPan="magnify"
   viewBox="0 0 375 374.999991"
   height="500"
   preserveAspectRatio="xMidYMid meet"
   version="1.0"
   id="svg46"
   sodipodi:docname="ukiyodrive logo.svg"
   inkscape:version="1.4 (86a8ad7, 2024-10-11)"
   xmlns:inkscape="http://www.inkscape.org/namespaces/inkscape"
   xmlns:sodipodi="http://sodipodi.sourceforge.net/DTD/sodipodi-0.dtd"
   xmlns="http://www.w3.org/2000/svg"
   xmlns:svg="http://www.w3.org/2000/svg">
  <sodipodi:namedview
     id="namedview46"
     pagecolor="#6b6b6b"
     bordercolor="#000000"
     borderopacity="0.25"
     inkscape:showpageshadow="2"
     inkscape:pageopacity="0.0"
     inkscape:pagecheckerboard="0"
     inkscape:deskcolor="#d1d1d1"
     inkscape:zoom="0.851"
     inkscape:cx="473.56052"
     inkscape:cy="349.58872"
     inkscape:window-width="1920"
     inkscape:window-height="1111"
     inkscape:window-x="2391"
     inkscape:window-y="-9"
     inkscape:window-maximized="1"
     inkscape:current-layer="svg46" />
  <defs
     id="defs8">
    <g
       id="g1" />
    <clipPath
       id="c9bcebaffd">
      <path
         d="M 11.46875 153.890625 L 363.53125 153.890625 L 363.53125 323.097656 L 11.46875 323.097656 Z M 11.46875 153.890625 "
         clip-rule="nonzero"
         id="path1" />
    </clipPath>
    <clipPath
       id="f0392e4abe">
      <path
         d="M 94.636719 138.1875 L 127.980469 138.1875 L 127.980469 170.894531 L 94.636719 170.894531 Z M 94.636719 138.1875 "
         clip-rule="nonzero"
         id="path2" />
    </clipPath>
    <clipPath
       id="594815ca0c">
      <path
         d="M 100.636719 138.1875 L 121.890625 138.1875 C 125.207031 138.1875 127.890625 140.875 127.890625 144.1875 L 127.890625 164.894531 C 127.890625 168.207031 125.207031 170.894531 121.890625 170.894531 L 100.636719 170.894531 C 97.324219 170.894531 94.636719 168.207031 94.636719 164.894531 L 94.636719 144.1875 C 94.636719 140.875 97.324219 138.1875 100.636719 138.1875 Z M 100.636719 138.1875 "
         clip-rule="nonzero"
         id="path3" />
    </clipPath>
    <clipPath
       id="57717680f5">
      <path
         d="M 19.617188 162.117188 L 337.25 162.117188 L 337.25 314.871094 L 19.617188 314.871094 Z M 19.617188 162.117188 "
         clip-rule="nonzero"
         id="path4" />
    </clipPath>
    <clipPath
       id="8101f252a9">
      <path
         d="M 37.894531 162.117188 L 355.523438 162.117188 L 355.523438 314.871094 L 37.894531 314.871094 Z M 37.894531 162.117188 "
         clip-rule="nonzero"
         id="path5" />
    </clipPath>
    <clipPath
       id="d1ff1eba49">
      <path
         d="M 168.503906 153.890625 L 206.496094 153.890625 L 206.496094 162.117188 L 168.503906 162.117188 Z M 168.503906 153.890625 "
         clip-rule="nonzero"
         id="path6" />
    </clipPath>
    <clipPath
       id="d5fbf5c4e6">
      <path
         d="M 168.503906 162.117188 L 206.496094 162.117188 L 206.496094 170.34375 L 168.503906 170.34375 Z M 168.503906 162.117188 "
         clip-rule="nonzero"
         id="path7" />
    </clipPath>
    <clipPath
       id="fbbc7b9a06">
      <path
         d="M 168.503906 143.742188 L 206.496094 143.742188 L 206.496094 153.890625 L 168.503906 153.890625 Z M 168.503906 143.742188 "
         clip-rule="nonzero"
         id="path8" />
    </clipPath>
  </defs>
  <g
     clip-path="url(#c9bcebaffd)"
     id="g9">
    <path
       fill="#000000"
       d="M 11.46875 153.890625 L 363.765625 153.890625 L 363.765625 323.097656 L 11.46875 323.097656 Z M 11.46875 153.890625 "
       fill-opacity="1"
       fill-rule="nonzero"
       id="path9" />
  </g>
  <g
     clip-path="url(#f0392e4abe)"
     id="g11">
    <g
       clip-path="url(#594815ca0c)"
       id="g10">
      <path
         fill="#000000"
         d="M 94.636719 138.1875 L 127.855469 138.1875 L 127.855469 170.894531 L 94.636719 170.894531 Z M 94.636719 138.1875 "
         fill-opacity="1"
         fill-rule="nonzero"
         id="path10" />
    </g>
  </g>
  <g
     clip-path="url(#57717680f5)"
     id="g12">
    <path
       fill="#ffffff"
       d="M 19.617188 162.117188 L 337.066406 162.117188 L 337.066406 314.871094 L 19.617188 314.871094 Z M 19.617188 162.117188 "
       fill-opacity="1"
       fill-rule="nonzero"
       id="path11" />
  </g>
  <g
     clip-path="url(#8101f252a9)"
     id="g13">
    <path
       fill="#ffd230"
       d="M 37.894531 162.117188 L 355.339844 162.117188 L 355.339844 314.871094 L 37.894531 314.871094 Z M 37.894531 162.117188 "
       fill-opacity="1"
       fill-rule="nonzero"
       id="path12" />
  </g>
  <g
     fill="#ffffff"
     fill-opacity="1"
     id="g16">
    <g
       transform="translate(48.922172, 265.536699)"
       id="g15">
      <g
         id="g14">
        <path
           d="M 70.5625 -3.046875 L 70.5625 -116.71875 C 70.5625 -118.328125 69.125 -119.765625 67.515625 -119.765625 L 56.5625 -119.765625 C 54.953125 -119.765625 53.515625 -118.328125 53.515625 -116.71875 L 53.515625 -88.53125 C 53.515625 -86.90625 52.078125 -85.46875 50.453125 -85.46875 L 22.265625 -85.46875 C 20.65625 -85.46875 19.21875 -84.03125 19.21875 -82.421875 L 19.21875 -71.46875 C 19.21875 -69.84375 17.78125 -68.40625 16.15625 -68.40625 L 5.203125 -68.40625 C 3.59375 -68.40625 2.15625 -66.984375 2.15625 -65.359375 L 2.15625 -20.109375 C 2.15625 -18.5 3.59375 -17.0625 5.203125 -17.0625 L 16.15625 -17.0625 C 17.78125 -17.0625 19.21875 -15.625 19.21875 -14 L 19.21875 -3.046875 C 19.21875 -1.4375 20.65625 0 22.265625 0 L 67.515625 0 C 69.125 0 70.5625 -1.4375 70.5625 -3.046875 Z M 53.515625 -65.359375 L 53.515625 -20.109375 C 53.515625 -18.5 52.078125 -17.0625 50.453125 -17.0625 L 22.265625 -17.0625 C 20.65625 -17.0625 19.21875 -18.5 19.21875 -20.109375 L 19.21875 -65.359375 C 19.21875 -66.984375 20.65625 -68.40625 22.265625 -68.40625 L 50.453125 -68.40625 C 52.078125 -68.40625 53.515625 -66.984375 53.515625 -65.359375 Z M 53.515625 -65.359375 "
           id="path13" />
      </g>
    </g>
  </g>
  <g
     fill="#ffffff"
     fill-opacity="1"
     id="g19">
    <g
       transform="translate(121.641794, 265.536699)"
       id="g18">
      <g
         id="g17">
        <path
           d="M 5.203125 0 L 16.15625 0 C 17.78125 0 19.21875 -1.4375 19.21875 -3.046875 L 19.21875 -65.359375 C 19.21875 -66.984375 20.65625 -68.40625 22.265625 -68.40625 L 50.453125 -68.40625 C 52.078125 -68.40625 53.515625 -69.84375 53.515625 -71.46875 L 53.515625 -82.421875 C 53.515625 -84.03125 52.078125 -85.46875 50.453125 -85.46875 L 22.265625 -85.46875 C 20.65625 -85.46875 19.21875 -84.03125 19.21875 -82.421875 L 19.21875 -71.46875 C 19.21875 -69.84375 17.78125 -68.40625 16.15625 -68.40625 L 5.203125 -68.40625 C 3.59375 -68.40625 2.15625 -66.984375 2.15625 -65.359375 L 2.15625 -3.046875 C 2.15625 -1.4375 3.59375 0 5.203125 0 Z M 5.203125 0 "
           id="path16" />
      </g>
    </g>
  </g>
  <g
     fill="#ffffff"
     fill-opacity="1"
     id="g22">
    <g
       transform="translate(177.303725, 265.536699)"
       id="g21">
      <g
         id="g20">
        <path
           d="M 5.203125,0 H 16.15625 c 1.625,0 3.0625,-1.4375 3.0625,-3.046875 v -79.375 c 0,-1.609375 -1.4375,-3.046875 -3.0625,-3.046875 H 5.203125 c -1.609375,0 -3.046875,1.4375 -3.046875,3.046875 v 79.375 C 2.15625,-1.4375 3.59375,0 5.203125,0 Z"
           id="path19"
           sodipodi:nodetypes="sssssssss" />
      </g>
    </g>
  </g>
  <g
     fill="#ffffff"
     fill-opacity="1"
     id="g25">
    <g
       transform="translate(198.670722, 265.536699)"
       id="g24">
      <g
         id="g23">
        <path
           d="M 5.203125 0 L 33.21875 0 C 34.828125 0 36.265625 -1.4375 36.265625 -3.046875 L 36.265625 -14 C 36.265625 -15.625 37.703125 -17.0625 39.328125 -17.0625 L 50.453125 -17.0625 C 52.078125 -17.0625 53.515625 -18.5 53.515625 -20.109375 L 53.515625 -31.0625 C 53.515625 -32.6875 54.953125 -34.109375 56.5625 -34.109375 L 67.515625 -34.109375 C 69.125 -34.109375 70.5625 -35.546875 70.5625 -37.171875 L 70.5625 -82.421875 C 70.5625 -84.03125 69.125 -85.46875 67.515625 -85.46875 L 56.5625 -85.46875 C 54.953125 -85.46875 53.515625 -84.03125 53.515625 -82.421875 L 53.515625 -37.171875 C 53.515625 -35.546875 52.078125 -34.109375 50.453125 -34.109375 L 39.328125 -34.109375 C 37.703125 -34.109375 36.265625 -32.6875 36.265625 -31.0625 L 36.265625 -20.109375 C 36.265625 -18.5 34.828125 -17.0625 33.21875 -17.0625 L 22.265625 -17.0625 C 20.65625 -17.0625 19.21875 -18.5 19.21875 -20.109375 L 19.21875 -82.421875 C 19.21875 -84.03125 17.78125 -85.46875 16.15625 -85.46875 L 5.203125 -85.46875 C 3.59375 -85.46875 2.15625 -84.03125 2.15625 -82.421875 L 2.15625 -3.046875 C 2.15625 -1.4375 3.59375 0 5.203125 0 Z M 5.203125 0 "
           id="path22" />
      </g>
    </g>
  </g>
  <g
     fill="#ffffff"
     fill-opacity="1"
     id="g28">
    <g
       transform="translate(271.390343, 265.536699)"
       id="g27">
      <g
         id="g26">
        <path
           d="M 22.265625 0 L 67.515625 0 C 69.125 0 70.5625 -1.4375 70.5625 -3.046875 L 70.5625 -14 C 70.5625 -15.625 69.125 -17.0625 67.515625 -17.0625 L 22.265625 -17.0625 C 20.65625 -17.0625 19.21875 -18.5 19.21875 -20.109375 L 19.21875 -31.0625 C 19.21875 -32.6875 20.65625 -34.109375 22.265625 -34.109375 L 67.515625 -34.109375 C 69.125 -34.109375 70.5625 -35.546875 70.5625 -37.171875 L 70.5625 -65.359375 C 70.5625 -66.984375 69.125 -68.40625 67.515625 -68.40625 L 56.5625 -68.40625 C 54.953125 -68.40625 53.515625 -69.84375 53.515625 -71.46875 L 53.515625 -82.421875 C 53.515625 -84.03125 52.078125 -85.46875 50.453125 -85.46875 L 22.265625 -85.46875 C 20.65625 -85.46875 19.21875 -84.03125 19.21875 -82.421875 L 19.21875 -71.46875 C 19.21875 -69.84375 17.78125 -68.40625 16.15625 -68.40625 L 5.203125 -68.40625 C 3.59375 -68.40625 2.15625 -66.984375 2.15625 -65.359375 L 2.15625 -20.109375 C 2.15625 -18.5 3.59375 -17.0625 5.203125 -17.0625 L 16.15625 -17.0625 C 17.78125 -17.0625 19.21875 -15.625 19.21875 -14 L 19.21875 -3.046875 C 19.21875 -1.4375 20.65625 0 22.265625 0 Z M 19.21875 -54.40625 L 19.21875 -65.359375 C 19.21875 -66.984375 20.65625 -68.40625 22.265625 -68.40625 L 50.453125 -68.40625 C 52.078125 -68.40625 53.515625 -66.984375 53.515625 -65.359375 L 53.515625 -54.40625 C 53.515625 -52.796875 52.078125 -51.359375 50.453125 -51.359375 L 22.265625 -51.359375 C 20.65625 -51.359375 19.21875 -52.796875 19.21875 -54.40625 Z M 19.21875 -54.40625 "
           id="path25" />
      </g>
    </g>
  </g>
  <g
     fill="#ffffff"
     fill-opacity="1"
     id="g34">
    <g
       transform="translate(48.552745, 134.40315)"
       id="g33">
      <g
         id="g32">
        <path
           d="M 37.390625 -22.3125 L 37.390625 -43.171875 L 53.84375 -43.171875 L 53.84375 0 L 46.015625 0 L 40.640625 -13.03125 C 39.390625 -8.195312 37.191406 -4.613281 34.046875 -2.28125 C 30.898438 0.0507812 27.15625 1.21875 22.8125 1.21875 C 17.050781 1.21875 12.472656 -0.570312 9.078125 -4.15625 C 5.679688 -7.738281 3.984375 -13.003906 3.984375 -19.953125 L 3.984375 -43.171875 L 20.28125 -43.171875 L 20.28125 -22.40625 C 20.28125 -18.925781 20.90625 -16.503906 22.15625 -15.140625 C 23.40625 -13.785156 25.46875 -13.109375 28.34375 -13.109375 C 31.21875 -13.109375 33.441406 -13.910156 35.015625 -15.515625 C 36.597656 -17.117188 37.390625 -19.382812 37.390625 -22.3125 Z M 37.390625 -22.3125 "
           id="path31" />
      </g>
    </g>
  </g>
  <g
     fill="#ffffff"
     fill-opacity="1"
     id="g37">
    <g
       transform="translate(107.442736, 134.40315)"
       id="g36">
      <g
         id="g35">
        <path
           d="M 56.859375 0 L 38.125 0 L 26.96875 -18.078125 L 20.765625 -10.5 L 20.765625 0 L 5.046875 0 L 5.046875 -59.453125 L 20.765625 -59.453125 L 20.765625 -24.84375 L 35.4375 -43.171875 L 56.046875 -43.171875 L 40.640625 -25.328125 Z M 56.859375 0 "
           id="path34" />
      </g>
    </g>
  </g>
  <g
     fill="#ffffff"
     fill-opacity="1"
     id="g40">
    <g
       transform="translate(163.726253, 134.40315)"
       id="g39">
      <g
         id="g38">
        <path
           d="M 21.90625 -55.625 C 21.90625 -58.070312 21.144531 -60.015625 19.625 -61.453125 C 18.101562 -62.890625 15.960938 -63.609375 13.203125 -63.609375 C 10.367188 -63.609375 8.207031 -62.890625 6.71875 -61.453125 C 5.226562 -60.015625 4.484375 -58.070312 4.484375 -55.625 C 4.484375 -53.1875 5.226562 -51.25 6.71875 -49.8125 C 8.207031 -48.375 10.367188 -47.65625 13.203125 -47.65625 C 15.960938 -47.65625 18.101562 -48.375 19.625 -49.8125 C 21.144531 -51.25 21.90625 -53.1875 21.90625 -55.625 Z M 21.34375 0 L 5.046875 0 L 5.046875 -43.171875 L 21.34375 -43.171875 Z M 21.34375 0 "
           id="path37" />
      </g>
    </g>
  </g>
  <g
     fill="#ffffff"
     fill-opacity="1"
     id="g43">
    <g
       transform="translate(190.116799, 134.40315)"
       id="g42">
      <g
         id="g41">
        <path
           d="M 27.046875 -16.375 L 37.0625 -43.171875 L 53.921875 -43.171875 L 37.0625 -2.359375 C 35.050781 2.523438 32.972656 6.40625 30.828125 9.28125 C 28.679688 12.164062 26.15625 14.242188 23.25 15.515625 C 20.34375 16.796875 16.773438 17.4375 12.546875 17.4375 C 10.640625 17.4375 8.859375 17.3125 7.203125 17.0625 C 5.546875 16.820312 4.175781 16.566406 3.09375 16.296875 L 3.09375 3.265625 C 4.289062 3.367188 5.515625 3.472656 6.765625 3.578125 C 8.015625 3.691406 9.125 3.75 10.09375 3.75 C 12.164062 3.75 13.726562 3.367188 14.78125 2.609375 C 15.84375 1.847656 16.726562 0.570312 17.4375 -1.21875 L -0.890625 -43.171875 L 16.9375 -43.171875 Z M 27.046875 -16.375 "
           id="path40" />
      </g>
    </g>
  </g>
  <g
     fill="#ffffff"
     fill-opacity="1"
     id="g46">
    <g
       transform="translate(243.142231, 134.40315)"
       id="g45">
      <g
         id="g44">
        <path
           d="M 29.328125 1.21875 C 23.460938 1.21875 18.519531 0.269531 14.5 -1.625 C 10.476562 -3.53125 7.4375 -6.140625 5.375 -9.453125 C 3.3125 -12.765625 2.28125 -16.507812 2.28125 -20.6875 L 2.28125 -22.484375 C 2.28125 -26.710938 3.3125 -30.46875 5.375 -33.75 C 7.4375 -37.039062 10.476562 -39.632812 14.5 -41.53125 C 18.519531 -43.4375 23.460938 -44.390625 29.328125 -44.390625 C 35.242188 -44.390625 40.207031 -43.4375 44.21875 -41.53125 C 48.238281 -39.632812 51.28125 -37.039062 53.34375 -33.75 C 55.414062 -30.46875 56.453125 -26.710938 56.453125 -22.484375 L 56.453125 -20.6875 C 56.453125 -16.507812 55.414062 -12.765625 53.34375 -9.453125 C 51.28125 -6.140625 48.238281 -3.53125 44.21875 -1.625 C 40.207031 0.269531 35.242188 1.21875 29.328125 1.21875 Z M 29.328125 -12.0625 C 33.015625 -12.0625 35.726562 -12.890625 37.46875 -14.546875 C 39.207031 -16.203125 40.078125 -18.601562 40.078125 -21.75 C 40.078125 -24.738281 39.207031 -27.046875 37.46875 -28.671875 C 35.726562 -30.296875 33.015625 -31.109375 29.328125 -31.109375 C 25.679688 -31.109375 22.988281 -30.296875 21.25 -28.671875 C 19.519531 -27.046875 18.65625 -24.738281 18.65625 -21.75 C 18.65625 -18.601562 19.519531 -16.203125 21.25 -14.546875 C 22.988281 -12.890625 25.679688 -12.0625 29.328125 -12.0625 Z M 29.328125 -12.0625 "
           id="path43" />
      </g>
    </g>
  </g>
</svg>
